<svg width="68" height="68" viewBox="0 0 68 68" fill="none" xmlns="http://www.w3.org/2000/svg">
<g filter="url(#filter0_d_15_8)">
<path d="M35.7637 64C34.5923 64 33.4201 64 32.2488 64C32.0981 63.9672 31.9483 63.9135 31.7969 63.9034C28.1364 63.6589 24.6122 62.8138 21.3371 61.1723C10.672 55.827 4.85308 47.1718 4.06123 35.2563C3.73726 30.3848 4.70329 25.6779 6.85499 21.2877C11.3721 12.073 18.6948 6.44795 28.781 4.4738C29.9245 4.25034 31.0925 4.15457 32.2496 4C33.421 4 34.5931 4 35.7645 4C35.9151 4.03276 36.0641 4.08569 36.2164 4.09661C40.4213 4.38055 44.405 5.49028 48.0865 7.5266C56.5284 12.1974 61.7069 19.2816 63.5271 28.7786C63.7459 29.9211 63.8452 31.0871 64 32.2422C64 33.4141 64 34.5859 64 35.7578C63.9655 35.9267 63.9125 36.0939 63.8999 36.2644C63.6079 40.4496 62.5021 44.4147 60.4758 48.0791C55.8072 56.5243 48.7252 61.7041 39.2315 63.5271C38.087 63.7463 36.9199 63.8454 35.7637 64ZM35.3513 34.0626C35.1999 34.2348 35.0762 34.3818 34.9457 34.5238C31.8886 37.8647 28.8272 41.2031 25.7735 44.5474C23.9945 46.4964 23.5654 49.0468 24.6568 51.0823C26.5939 54.6929 31.1262 55.291 33.8981 52.2752C38.2579 47.5322 42.6084 42.7816 46.9236 37.9983C47.4958 37.364 47.9855 36.5702 48.254 35.7637C48.9726 33.6098 48.3894 31.6961 46.8731 30.042C44.0238 26.9338 41.1837 23.8171 38.326 20.7165C36.5412 18.7793 34.8077 16.785 32.9144 14.9587C30.6011 12.7274 26.3726 13.4079 24.6913 16.1574C23.233 18.5441 23.5039 21.1365 25.4436 23.2551C28.1591 26.2206 30.8813 29.1818 33.5993 32.1447C34.1791 32.7756 34.7556 33.4099 35.3513 34.0626Z" fill="white"/>
</g>
<defs>
<filter id="filter0_d_15_8" x="0" y="0" width="68" height="68" filterUnits="userSpaceOnUse" color-interpolation-filters="sRGB">
<feFlood flood-opacity="0" result="BackgroundImageFix"/>
<feColorMatrix in="SourceAlpha" type="matrix" values="0 0 0 0 0 0 0 0 0 0 0 0 0 0 0 0 0 0 127 0" result="hardAlpha"/>
<feOffset/>
<feGaussianBlur stdDeviation="2"/>
<feComposite in2="hardAlpha" operator="out"/>
<feColorMatrix type="matrix" values="0 0 0 0 0 0 0 0 0 0 0 0 0 0 0 0 0 0 0.25 0"/>
<feBlend mode="normal" in2="BackgroundImageFix" result="effect1_dropShadow_15_8"/>
<feBlend mode="normal" in="SourceGraphic" in2="effect1_dropShadow_15_8" result="shape"/>
</filter>
</defs>
</svg>
