<svg width="159" height="159" viewBox="0 0 159 159" fill="none" xmlns="http://www.w3.org/2000/svg">
<path d="M79.4007 159C68.1523 159 57.6979 156.979 48.0375 152.938C38.377 148.897 29.9738 143.299 22.8277 136.144C15.6816 128.989 10.0905 120.575 6.05431 110.902C2.0181 101.23 0 90.7625 0 79.5C0 68.37 2.0181 57.9687 6.05431 48.2962C10.0905 38.6237 15.6816 30.21 22.8277 23.055C29.9738 15.9 38.377 10.2688 48.0375 6.16125C57.6979 2.05375 68.1523 0 79.4007 0C89.3258 0 98.5893 1.59 107.191 4.77C115.793 7.95 123.534 12.3225 130.416 17.8875L121.88 26.4337C116.057 21.7962 109.573 18.2187 102.427 15.7012C95.2809 13.1837 87.6055 11.925 79.4007 11.925C60.2122 11.925 44.1667 18.3844 31.264 31.3031C18.3614 44.2219 11.9101 60.2875 11.9101 79.5C11.9101 98.7125 18.3614 114.778 31.264 127.697C44.1667 140.616 60.2122 147.075 79.4007 147.075C98.5893 147.075 114.635 140.616 127.537 127.697C140.44 114.778 146.891 98.7125 146.891 79.5C146.891 75.525 146.594 71.6494 145.998 67.8731C145.403 64.0969 144.509 60.42 143.318 56.8425L152.449 47.7C154.567 52.6025 156.155 57.7038 157.213 63.0037C158.272 68.3037 158.801 73.8025 158.801 79.5C158.801 90.7625 156.75 101.23 152.648 110.902C148.546 120.575 142.921 128.989 135.775 136.144C128.629 143.299 120.226 148.897 110.566 152.938C100.905 156.979 90.5169 159 79.4007 159ZM67.6891 115.672L34.9363 82.68L43.8689 73.7362L67.6891 97.5862L149.869 15.3037L159 24.2475L67.6891 115.672Z" fill="#ADFF86"/>
</svg>
