<svg width="82" height="118" viewBox="0 0 82 118" fill="none" xmlns="http://www.w3.org/2000/svg">
<path d="M74.1877 28.2737C72.9955 21.6929 70.3012 15.8171 65.6993 10.9769C57.6368 2.50557 47.7247 -1.18338 36.0652 0.332395C28.8371 1.27251 22.5015 4.34153 17.3207 9.45768C9.43184 17.2511 5.94046 26.7443 7.15307 37.8282C7.57885 41.7283 8.61775 45.4479 10.4503 48.912C10.4844 48.9154 12.9777 49.1845 15.1543 48.2342C15.1543 48.2342 23.2918 61.9511 33.5241 51.3679C33.5241 51.3679 45.6537 60.9667 55.1366 49.968C55.1366 49.968 63.4785 55.8301 71.4116 48.241C71.6637 47.7165 71.9055 47.1885 72.1201 46.6537C74.4976 40.7575 75.339 34.6161 74.1877 28.2737ZM40.8032 48.912C32.6112 48.987 25.7613 42.1916 25.7 33.9349C25.6387 25.6884 32.3728 18.8929 40.6636 18.8384C48.9884 18.7839 55.7736 25.4738 55.8315 33.7952C55.886 42.0621 49.1553 48.8371 40.8032 48.912Z" fill="#28ACE2"/>
<path d="M81.7324 90.2676C81.654 104.56 66.2681 113.008 53.9546 115.675C41.1233 118.355 27.3996 117.095 15.5425 111.175C7.69798 107.231 -0.129535 99.7607 0.139558 90.2676C0.401837 80.9822 8.36901 74.1868 16.1897 70.6886C27.8322 65.4532 41.0756 64.7277 53.5118 67.0166C65.6039 69.2988 80.9932 76.1181 81.7324 90.2676ZM78.1899 90.2676C78.2989 82.1471 71.558 76.0874 64.8034 72.4905C57.5005 68.6414 49.1552 67.0371 40.936 67.0575C32.7304 67.1767 24.4021 68.7811 17.0958 72.545C10.3037 76.05 3.49469 82.1335 3.68203 90.2676C4.08056 98.1802 10.9816 103.576 17.743 106.662C24.9505 109.932 33.0267 111.257 40.9394 111.195C52.3877 110.981 65.3314 108.47 73.6937 100.176C76.2756 97.4752 78.0775 94.028 78.1899 90.2676Z" fill="#61B23F"/>
<path d="M55.1395 53.4623C45.6565 64.461 33.5269 54.8622 33.5269 54.8622C23.2912 65.442 15.1571 51.7285 15.1571 51.7285C12.9805 52.6823 10.4906 52.4132 10.4531 52.4064C10.7358 52.9377 11.0322 53.4657 11.3524 53.9868C15.9167 61.4022 20.3584 68.8959 24.9705 76.284C30.1275 84.5509 35.414 92.7361 40.7073 101.054C40.8674 100.857 40.9798 100.737 41.0683 100.601C41.8518 99.3851 42.6454 98.1725 43.4118 96.9462C51.6106 83.8629 59.8264 70.7864 67.9877 57.6792C69.1935 55.7411 70.4266 53.7825 71.4144 51.7319C63.4813 59.3244 55.1395 53.4623 55.1395 53.4623Z" fill="#3B89C9"/>
</svg>
