<svg width="210" height="183" viewBox="0 0 210 183" fill="none" xmlns="http://www.w3.org/2000/svg">
<g filter="url(#filter0_d_36_1030)">
<path d="M4 154.499C4 142.155 12.3929 134.031 23.2759 134.031C28.7463 134.031 33.2936 135.547 36.7577 137.604L34.9184 147.731H34.5403C31.4542 145.405 28.0957 143.834 24.3045 143.834C18.6195 143.834 15.4245 147.895 15.4245 154.557C15.4245 161.002 18.1869 164.844 22.7888 164.844C24.25 164.844 25.4967 164.575 26.9035 163.924V159.05H22.4618V151.795H36.4852V170.638C30.6912 173.615 26.522 174.375 22.2438 174.375C10.8227 174.371 4 166.465 4 154.499Z" fill="#61B23F"/>
<path d="M58.4219 146.376H68.6031V173.34H59.3995L59.0214 169.389C56.5315 172.584 53.769 174.369 50.2504 174.369C45.376 174.369 42.5625 170.741 42.5625 164.079V146.373H52.7403V162.781C52.7403 165.002 53.3909 165.867 54.6887 165.867C55.8809 165.867 57.1241 165.162 58.4253 163.919V146.376H58.4219Z" fill="#61B23F"/>
<path d="M73.1484 137.983C73.1484 134.897 75.5294 132.73 78.9969 132.73C82.4645 132.73 84.7909 134.897 84.7909 137.983C84.7909 141.069 82.41 143.344 78.9969 143.344C75.5873 143.344 73.1484 141.123 73.1484 137.983ZM73.908 173.343V146.379H84.0858V173.343H73.908Z" fill="#61B23F"/>
<path d="M87.8789 167.818C87.8789 162.566 91.561 159.694 101.793 158.124V156.608C101.793 154.064 101.088 153.25 99.1399 153.25C96.9735 153.25 93.4549 154.551 91.2885 156.172H90.856L89.7183 148.593C93.0223 146.645 97.8421 145.344 101.63 145.344C108.562 145.344 111.862 148.808 111.862 156.067V173.34H103.687L102.928 170.741C100.547 173.179 97.9988 174.368 95.0763 174.368C90.4779 174.317 87.8789 171.882 87.8789 167.818ZM101.797 167.385V161.861C98.0601 162.675 97.0314 163.972 97.0314 166.193C97.0314 167.818 97.7365 168.683 99.0343 168.683C99.8995 168.687 100.823 168.305 101.797 167.385Z" fill="#61B23F"/>
<path d="M160.928 172.42L160.55 173.34H149.449L141.329 159.858H139.758V173.34H128.984V135.061H142.848C152.702 135.061 157.467 139.284 157.467 147.677C157.467 152.606 155.355 156.07 151.564 157.913L160.928 172.42ZM139.758 143.668V152.116H142.575C145.825 152.116 147.286 150.654 147.286 147.946C147.286 145.024 145.716 143.668 142.521 143.668H139.758Z" fill="#61B23F"/>
<path d="M162.445 137.983C162.445 134.897 164.826 132.73 168.294 132.73C171.758 132.73 174.088 134.897 174.088 137.983C174.088 141.069 171.707 143.344 168.294 143.344C164.881 143.344 162.445 141.123 162.445 137.983ZM163.205 173.343V146.379H173.383V173.343H163.205Z" fill="#61B23F"/>
<path d="M177.715 159.856C177.715 151.518 183.294 145.346 191.793 145.346C200.291 145.346 205.871 151.518 205.871 159.856C205.871 168.249 200.24 174.367 191.793 174.367C183.291 174.37 177.715 168.249 177.715 159.856ZM195.962 159.856C195.962 156.174 194.446 153.793 191.793 153.793C189.139 153.793 187.624 156.174 187.624 159.856C187.624 163.593 189.139 165.919 191.793 165.919C194.446 165.923 195.962 163.593 195.962 159.856Z" fill="#61B23F"/>
<path d="M104.942 114.189C126.294 114.189 143.603 103.361 143.603 90.0045C143.603 76.648 126.294 65.8203 104.942 65.8203C83.5902 65.8203 66.2812 76.648 66.2812 90.0045C66.2812 103.361 83.5902 114.189 104.942 114.189Z" fill="white"/>
<path d="M104.947 50.8338C116.14 50.8338 125.214 42.8274 125.214 32.9511C125.214 23.0747 116.14 15.0684 104.947 15.0684C93.7536 15.0684 84.6797 23.0747 84.6797 32.9511C84.6797 42.8274 93.7536 50.8338 104.947 50.8338Z" fill="white"/>
<path d="M75.3557 53.9867L73.1484 46.0672L137.291 43.332L135.421 51.7352L109.541 71.6106L75.3557 53.9867Z" fill="white"/>
<path d="M138.188 28.2737C136.995 21.6929 134.301 15.8171 129.699 10.9769C121.637 2.50557 111.725 -1.18338 100.065 0.332395C92.8371 1.27251 86.5015 4.34153 81.3207 9.45768C73.4318 17.2511 69.9405 26.7443 71.1531 37.8282C71.5789 41.7283 72.6178 45.4479 74.4503 48.912C74.4844 48.9154 76.9777 49.1845 79.1543 48.2342C79.1543 48.2342 87.2918 61.9511 97.5241 51.3679C97.5241 51.3679 109.654 60.9667 119.137 49.968C119.137 49.968 127.478 55.8301 135.412 48.241C135.664 47.7165 135.905 47.1885 136.12 46.6537C138.498 40.7575 139.339 34.6161 138.188 28.2737ZM104.803 48.912C96.6112 48.987 89.7613 42.1916 89.7 33.9349C89.6387 25.6884 96.3728 18.8929 104.664 18.8384C112.988 18.7839 119.774 25.4738 119.831 33.7952C119.886 42.0621 113.155 48.8371 104.803 48.912Z" fill="#28ACE2"/>
<path d="M145.732 90.2676C145.654 104.56 130.268 113.008 117.955 115.675C105.123 118.355 91.3996 117.095 79.5425 111.175C71.698 107.231 63.8705 99.7607 64.1396 90.2676C64.4018 80.9822 72.369 74.1868 80.1897 70.6886C91.8322 65.4532 105.076 64.7277 117.512 67.0166C129.604 69.2988 144.993 76.1181 145.732 90.2676ZM142.19 90.2676C142.299 82.1471 135.558 76.0874 128.803 72.4905C121.5 68.6414 113.155 67.0371 104.936 67.0575C96.7304 67.1767 88.4021 68.7811 81.0958 72.545C74.3037 76.05 67.4947 82.1335 67.682 90.2676C68.0806 98.1802 74.9816 103.576 81.743 106.662C88.9505 109.932 97.0267 111.257 104.939 111.195C116.388 110.981 129.331 108.47 137.694 100.176C140.276 97.4752 142.077 94.028 142.19 90.2676Z" fill="#61B23F"/>
<path d="M119.139 53.4623C109.657 64.461 97.5269 54.8622 97.5269 54.8622C87.2912 65.442 79.1571 51.7285 79.1571 51.7285C76.9805 52.6823 74.4906 52.4132 74.4531 52.4064C74.7358 52.9377 75.0322 53.4657 75.3524 53.9868C79.9167 61.4022 84.3584 68.8959 88.9705 76.284C94.1275 84.5509 99.414 92.7361 104.707 101.054C104.867 100.857 104.98 100.737 105.068 100.601C105.852 99.3851 106.645 98.1725 107.412 96.9462C115.611 83.8629 123.826 70.7864 131.988 57.6792C133.194 55.7411 134.427 53.7825 135.414 51.7319C127.481 59.3244 119.139 53.4623 119.139 53.4623Z" fill="#3B89C9"/>
</g>
<defs>
<filter id="filter0_d_36_1030" x="0" y="0" width="209.871" height="182.375" filterUnits="userSpaceOnUse" color-interpolation-filters="sRGB">
<feFlood flood-opacity="0" result="BackgroundImageFix"/>
<feColorMatrix in="SourceAlpha" type="matrix" values="0 0 0 0 0 0 0 0 0 0 0 0 0 0 0 0 0 0 127 0" result="hardAlpha"/>
<feOffset dy="4"/>
<feGaussianBlur stdDeviation="2"/>
<feComposite in2="hardAlpha" operator="out"/>
<feColorMatrix type="matrix" values="0 0 0 0 0 0 0 0 0 0 0 0 0 0 0 0 0 0 0.25 0"/>
<feBlend mode="normal" in2="BackgroundImageFix" result="effect1_dropShadow_36_1030"/>
<feBlend mode="normal" in="SourceGraphic" in2="effect1_dropShadow_36_1030" result="shape"/>
</filter>
</defs>
</svg>
